PathFileType	4	(X/Y/Z)	C:\Users\WrightLab\Desktop\Jo\P1.2Trial9.trc
DataRate	CameraRate	NumFrames	NumMarkers	Units	OrigDataRate	OrigDataStartFrame	OrigNumFrames
100.00	100.00	       12	19	mm	100.00	135	       538
Frame#	Time	Headset_Front			Headset_Back			Headset_Left			Headset_Right			Left_Shoulder			Right_Shoulder			Sternum			C7			Left Elbow			Right Elbow			Left Wrist			Right Wrist			Left ASIS			Right ASIS			S2			Left Knee			Right Knee			Left Ankle			Right Ankle			
		X1	Y1	Z1	X2	Y2	Z2	X3	Y3	Z3	X4	Y4	Z4	X5	Y5	Z5	X6	Y6	Z6	X7	Y7	Z7	X8	Y8	Z8	X9	Y9	Z9	X10	Y10	Z10	X11	Y11	Z11	X12	Y12	Z12	X13	Y13	Z13	X14	Y14	Z14	X15	Y15	Z15	X16	Y16	Z16	X17	Y17	Z17	X18	Y18	Z18	X19	Y19	Z19	

135	1.340				-623.07800	1485.09070	-743.69781	-507.33926	1433.17188	-632.76776	-721.81519	1426.63562	-550.49652	-411.32645	1217.38062	-637.76263	-833.43011	1233.95337	-670.64630	-639.76575	1161.56372	-538.49872	-611.60663	1285.96118	-770.93359	-352.74463	930.95123	-684.19592	-902.79236	987.43585	-735.27911	-307.64606	726.61304	-573.43127	-970.25800	737.18756	-685.50940	-528.31091	845.05945	-523.48413	-794.57996	849.92273	-621.01868	-571.46320	895.39642	-829.24371	-623.00452	436.43347	-502.64648	-878.53876	423.91275	-673.55640	-636.09467	77.01210	-533.53131	-776.74902	188.49231	-925.54712	
136	1.350	-609.67255	1398.41589	-437.18845	-624.29694	1487.14465	-734.04218	-508.22281	1434.61865	-622.78503	-723.33386	1427.98767	-541.42053	-412.02097	1219.51733	-630.62396	-833.35583	1234.70496	-659.98138	-639.58569	1163.59961	-529.08325	-613.89282	1287.46204	-762.07507	-352.47641	933.83563	-674.04742	-905.35101	989.24750	-724.87018	-309.51022	729.71362	-559.38574	-973.70020	739.51917	-675.86481	-526.02423	847.75305	-514.15063	-793.68896	849.51520	-610.44244	-573.64276	896.41046	-819.43011	-616.21515	434.25391	-497.11893	-884.43909	426.31595	-646.64270	-635.31598	76.60207	-534.45752	-784.62640	193.04405	-903.20795	
137	1.360				-625.52777	1489.23389	-724.71643	-508.72092	1434.77759	-611.06116	-724.01062	1428.53235	-530.43201	-412.83182	1221.48425	-622.77423	-836.23883	1237.43298	-652.13269	-639.98645	1166.28882	-519.38531	-615.68390	1288.56714	-753.83331	-352.25198	935.23926	-665.24103	-907.80939	990.78857	-714.73224	-311.32858	733.22748	-545.78632	-977.04248	741.54401	-666.47504	-523.76532	849.71722	-503.52304	-795.32855	852.06055	-599.63556	-576.21393	897.19519	-810.28967	-607.97870	433.01279	-492.34973	-890.28009	429.62714	-617.50671	-633.81580	75.97472	-536.55048				
138	1.370	-609.56580	1400.91284	-419.01965	-626.87543	1490.78772	-715.09808	-510.11536	1436.73987	-603.00793	-724.92450	1430.07703	-521.94043	-413.07080	1223.50354	-616.97021	-837.03455	1238.71338	-642.48096	-638.90466	1167.77734	-510.70123	-617.27301	1290.28906	-746.26019	-351.58618	936.38434	-654.32288	-909.93262	992.35681	-704.98993	-311.93619	736.92444	-531.53961	-980.34088	743.49054	-656.36639	-521.07843	851.82874	-495.37561	-794.44897	851.42084	-586.60107	-578.82648	897.82404	-800.61621	-601.54279	430.89163	-488.71765	-895.39258	434.76373	-588.72894	-632.73950	75.28605	-539.62482	-800.47559	198.05730	-855.16083	
139	1.380				-628.08734	1492.64880	-705.65411	-510.31644	1438.39282	-594.56989	-725.27545	1430.83289	-512.00159	-413.36920	1225.87341	-610.41205	-837.06378	1238.91736	-632.75690	-638.73920	1170.37659	-502.91370	-618.47003	1289.71912	-735.26923	-351.40323	938.37860	-644.85596	-911.81055	993.89734	-695.19220	-314.13394	739.82275	-518.37225	-983.48944	745.50665	-646.50604	-519.58289	854.43921	-483.99808	-794.30652	854.63287	-571.93445	-581.68195	898.47699	-791.81903	-594.97333	428.78845	-486.08469	-900.13190	443.95908	-563.48743	-630.75586	74.10118	-544.37939	-808.48737	197.60719	-830.19940	
140	1.390	-611.13007	1400.30286	-402.33743	-629.36542	1494.07288	-696.32593	-511.28973	1439.61145	-585.28418	-724.23230	1430.94543	-501.41824	-413.87463	1227.40759	-604.46692	-838.37085	1240.76453	-622.67633	-638.64832	1171.96057	-494.03140	-620.46533	1291.60657	-728.43701	-352.14841	939.16559	-635.99438	-913.67188	995.25391	-685.62732	-317.18750	741.82391	-506.77118	-986.41455	747.49072	-635.56390	-516.97040	856.60242	-474.86111	-794.66364	853.76062	-563.52161	-584.65735	899.04242	-782.78125	-587.40417	425.73804	-482.55508	-899.41418	448.74725	-542.23663	-630.40161	73.26804	-550.17249	-817.25165	197.24380	-804.39099	
141	1.400				-630.54370	1495.37646	-686.95746	-511.61081	1440.81641	-576.45624	-724.78027	1432.45288	-492.08487	-414.07211	1228.97717	-598.26410	-838.42908	1241.49561	-612.59814	-637.81354	1173.55652	-484.86588	-621.99048	1292.37720	-719.56622	-351.03864	941.00922	-627.62738	-914.90515	997.08423	-676.48596	-318.54953	744.86139	-493.19012	-990.13141	749.39166	-624.58740	-514.83606	858.65417	-464.40936	-792.93030	856.47089	-546.73883	-587.44391	899.64648	-773.33185	-581.36267	422.76874	-481.45618	-894.48523	450.79337	-522.45276	-629.04974	72.46117	-556.38239	-824.46716	195.32672	-778.40363	
142	1.410	-611.13727	1403.11426	-383.13855	-631.64771	1496.51672	-677.01990	-512.46625	1441.83252	-567.93414	-725.97565	1432.68127	-483.88687	-414.41629	1229.99365	-590.65796	-839.49780	1242.79102	-602.84039	-636.37543	1174.81702	-475.53033	-623.30237	1293.56763	-711.94989	-351.34402	942.95996	-619.53119	-916.27435	998.54517	-667.32587	-318.40381	747.06024	-480.46896	-993.00873	751.51898	-613.65234	-512.47357	859.94916	-457.06628	-793.55975	856.79535	-535.93695	-590.37732	900.15204	-764.36761	-575.22461	419.37088	-479.38696	-891.03369	455.80637	-502.71603	-629.76312	71.84900	-559.89874	-831.23816	188.67941	-751.07312	
143	1.420	-609.53387	1402.87415	-374.92078	-632.72174	1497.60974	-668.24310	-513.29749	1442.46106	-559.33746	-725.96497	1432.40479	-473.86212	-414.60794	1230.91785	-584.02679	-839.04742	1243.18628	-593.05566	-635.21832	1176.09363	-466.35049	-624.31250	1292.52698	-701.20258	-351.54218	943.01215	-610.12317	-917.32129	1000.16028	-658.06476	-319.43472	749.96631	-469.42941	-995.61041	752.97864	-602.48407	-510.61288	861.50488	-449.37436	-791.57581	861.58160	-511.07596	-593.40747	900.38098	-755.45563	-568.56140	417.30969	-477.34357	-888.15991	458.86923	-484.10806	-628.28558	72.84634	-561.14130	-839.32471	184.57430	-723.61224	
144	1.430	-610.51569	1403.63696	-366.06641	-633.63721	1498.50500	-659.01953	-513.90613	1443.73291	-550.14777	-727.97717	1433.34265	-465.19968	-415.15979	1231.54822	-576.94366	-840.37445	1245.09802	-582.63953	-635.32495	1178.09680	-458.65128	-626.21533	1294.98218	-695.79114	-351.42667	943.88763	-602.04199	-918.23425	1001.12732	-648.75024	-318.94821	752.82080	-458.11966	-997.77179	754.33002	-591.86798	-509.09821	863.14008	-441.99011	-791.51776	863.00049	-499.22433	-596.43158	900.67053	-746.54144	-563.81262	414.77319	-475.76135	-888.24683	462.61157	-466.17902	-627.10596	72.87289	-560.70221	-848.08099	179.92329	-695.29749	
145	1.440	-610.67767	1403.43921	-355.42642	-634.48645	1499.37195	-649.91315	-514.30609	1444.46094	-540.91980	-728.40625	1433.40259	-456.19934	-415.45010	1232.21289	-570.22797	-840.63385	1245.98694	-573.06335	-632.56604	1179.33618	-448.13577	-626.89172	1294.70544	-685.80347	-351.23328	943.83508	-595.15643	-918.04596	1001.58612	-638.60913	-319.95731	753.86127	-446.50583	-998.42419	755.47003	-581.56012	-507.46289	864.65295	-432.83432	-790.59973	862.30792	-487.84821	-599.40472	900.82996	-737.24353	-558.54071	412.17191	-475.40991	-884.53345	466.22864	-448.50955	-626.49280	72.86633	-561.14734	-854.51282	174.29076	-665.15924	
146	1.450	-611.75922	1404.40112	-348.23584	-635.25085	1499.89453	-640.18579	-514.40332	1444.83777	-531.91223	-726.35315	1432.84802	-445.63840	-415.28189	1232.71606	-563.39087	-840.98157	1246.06970	-562.22791	-631.34320	1179.97009	-438.21335	-628.93152	1296.00354	-676.80804	-350.47000	945.20471	-586.93530	-918.84216	1002.59076	-628.91602	-319.68921	755.77185	-435.42383	-1001.14398	756.67664	-569.94501	-505.93912	865.71796	-423.13135	-790.10492	863.86481	-476.10565	-601.81732	900.14691	-728.30902	-553.13373	410.59006	-473.55615	-878.55499	468.08841	-430.21338	-625.77722	72.64109	-561.17963	-862.02484	167.19035	-635.11157	
